<?xml version="1.0" encoding="utf-8"?>
<!-- Generator: Adobe Illustrator 23.1.0, SVG Export Plug-In . SVG Version: 6.00 Build 0)  -->
<svg version="1.1" id="Layer_1" xmlns="http://www.w3.org/2000/svg" xmlns:xlink="http://www.w3.org/1999/xlink" x="0px" y="0px"
	 viewBox="0 0 56.7 56.7" style="enable-background:new 0 0 56.7 56.7;" xml:space="preserve">
<style type="text/css">
	.st0{fill:none;}
</style>
<title>arrow direction navigation left previous</title>
<path d="M18.8,8.6L0.6,26.9c-0.2,0.2-0.4,0.5-0.5,0.9c-0.2,0.7,0,1.5,0.5,2L18.8,48c0.8,0.8,2.1,0.8,2.8,0c0.8-0.8,0.8-2,0-2.8
	L6.9,30.3h47.8c1.1,0,2-0.9,2-2s-0.9-2-2-2H6.9l14.8-14.8c0.8-0.8,0.8-2.1,0-2.8C20.8,7.8,19.6,7.8,18.8,8.6z"/>
<rect class="st0" width="56.7" height="56.7"/>
</svg>
