<?xml version="1.0" encoding="utf-8"?>
<!-- Generator: Adobe Illustrator 23.1.0, SVG Export Plug-In . SVG Version: 6.00 Build 0)  -->
<svg version="1.1"
	 id="Layer_1" xmlns:cc="http://creativecommons.org/ns#" xmlns:dc="http://purl.org/dc/elements/1.1/" xmlns:inkscape="http://www.inkscape.org/namespaces/inkscape" xmlns:rdf="http://www.w3.org/1999/02/22-rdf-syntax-ns#" xmlns:sodipodi="http://sodipodi.sourceforge.net/DTD/sodipodi-0.dtd" xmlns:svg="http://www.w3.org/2000/svg"
	 xmlns="http://www.w3.org/2000/svg" xmlns:xlink="http://www.w3.org/1999/xlink" x="0px" y="0px" viewBox="0 0 22.4 14"
	 style="enable-background:new 0 0 22.4 14;" xml:space="preserve">
<style type="text/css">
	.st0{fill-rule:evenodd;clip-rule:evenodd;}
</style>
<g>
	<path class="st0" d="M2.2,0C1,0,0,1,0,2.2v9.7C0,13.1,1,14,2.2,14h18c1.2,0,2.2-1,2.2-2.2V2.2c0-1.2-1-2.2-2.2-2.2L2.2,0z M2.2,0.6
		h18c0.9,0,1.6,0.7,1.6,1.6v9.7c0,0.9-0.7,1.6-1.6,1.6h-18c-0.9,0-1.6-0.7-1.6-1.6V2.2C0.6,1.3,1.3,0.6,2.2,0.6z"/>
	<path class="st0" d="M17.6,10.3c0,0.8-0.6,1.4-1.4,1.4c-0.8,0-1.4-0.6-1.4-1.4c0-0.8,0.6-1.4,1.4-1.4C17,8.9,17.6,9.5,17.6,10.3"/>
	<path class="st0" d="M16.2,8.6c-1,0-1.7,0.8-1.7,1.7c0,1,0.8,1.7,1.7,1.7c1,0,1.7-0.8,1.7-1.7S17.1,8.6,16.2,8.6z M16.2,9.2
		c0.6,0,1.1,0.5,1.1,1.1s-0.5,1.1-1.1,1.1c-0.6,0-1.1-0.5-1.1-1.1C15.1,9.7,15.6,9.2,16.2,9.2z"/>
	<path class="st0" d="M18.3,8.6c-0.5,0-0.9,0.2-1.3,0.5l0.4,0.4c0.2-0.2,0.5-0.4,0.8-0.4c0.6,0,1.1,0.5,1.1,1.1s-0.5,1.1-1.1,1.1
		c-0.3,0-0.6-0.1-0.8-0.3L17,11.5c0.3,0.3,0.8,0.5,1.2,0.5c1,0,1.7-0.8,1.7-1.7S19.2,8.6,18.3,8.6z"/>
	<path d="M3.1,8.5C2.5,8.5,1.9,9,1.9,9.6v1.3c0,0.7,0.5,1.2,1.2,1.2h2.4c0.7,0,1.2-0.5,1.2-1.2V9.6c0-0.7-0.5-1.2-1.2-1.2H3.1z
		 M3.1,9.1h0.2c0,0.1,0,0.3-0.1,0.5H2.7C2.8,9.3,2.9,9.1,3.1,9.1z M3.9,9.1h0.8c0,0.2,0.2,0.9,0.2,1.2c0,0.4-0.1,1-0.2,1.2H3.9
		c0-0.2-0.2-0.9-0.2-1.2C3.8,9.9,3.9,9.3,3.9,9.1z M5.4,9.1h0.2c0.3,0,0.4,0.2,0.5,0.5H5.4C5.4,9.3,5.4,9.2,5.4,9.1z M2.5,10.1h0.6
		c0,0.1,0,0.1,0,0.2c0,0.1,0,0.2,0,0.3H2.5V10.1z M5.5,10.1h0.7v0.4H5.5c0-0.1,0-0.2,0-0.3C5.5,10.2,5.5,10.2,5.5,10.1z M2.8,11.2
		h0.5c0,0.1,0,0.3,0,0.4H3.1C2.9,11.5,2.9,11.3,2.8,11.2z M5.4,11.2h0.5c-0.1,0.2-0.2,0.4-0.4,0.4H5.4C5.4,11.4,5.4,11.3,5.4,11.2z"
		/>
	<path class="st0" d="M0.4,2.9h21.7v2.3H0.4V2.9z"/>
	<path class="st0" d="M0,2.6v0.3v2.6h22.3V2.6H0z M0.7,3.2h21.1v1.7H0.7V3.2z"/>
</g>
</svg>
