<?xml version="1.0" encoding="utf-8"?>
<!-- Generator: Adobe Illustrator 23.1.0, SVG Export Plug-In . SVG Version: 6.00 Build 0)  -->
<svg version="1.1" id="Layer_1" xmlns="http://www.w3.org/2000/svg" xmlns:xlink="http://www.w3.org/1999/xlink" x="0px" y="0px"
	 viewBox="0 0 85.8 73.4" style="enable-background:new 0 0 85.8 73.4;" xml:space="preserve">
<path d="M68.9,58.5c-4,0-7.1,2-7.1,4.5c0,2.5,3.1,4.5,7.1,4.5s7.1-2,7.1-4.5C76,60.5,72.9,58.5,68.9,58.5z M68.9,66.1
	c-3,0-5.6-1.4-5.6-3c0-1.6,2.6-3,5.6-3s5.6,1.4,5.6,3C74.5,64.7,71.9,66.1,68.9,66.1z"/>
<path d="M85.5,4.6C84.9,4.2,72-5.5,50,4.5c-21.2,9.7-37.8,0.1-37.9,0L11,3.9v2.3H0v1.5h11v5.5H0v1.5h11v1.9v3.6H0v1.5h11v5.5H0v1.5
	h11v5.5H0v1.5h11v5.5H0v1.5h11v5.5H0v1.5h11v5.5H0v1.5h11v1.4l0.4,0.2c0.1,0.1,2.2,1.3,6,2.5v0c0,0,0,0,0,0l0.9,0.3v0
	c3.4,1,7.6,1.8,12.3,1.8c5.9,0,12.7-1.2,20-4.5c1.7-0.8,3.4-1.5,5.1-2c-2.3,1.8-3.8,4-3.8,6.5c0,5.7,7.6,10.4,16.9,10.4
	c9.3,0,16.9-4.7,16.9-10.4V5.2H85L85.5,4.6z M16.8,19.1v40.2c-2.2-0.8-3.7-1.5-4.3-1.8V16.7V6.5c0.9,0.4,2.4,1.1,4.3,1.7V19.1z
	 M68.9,71.9c-8.5,0-15.4-4-15.4-8.9s6.9-8.9,15.4-8.9c8.5,0,15.4,4,15.4,8.9C84.2,68,77.4,71.9,68.9,71.9z M84.2,58.8
	c-2.6-3.6-8.5-6.1-15.4-6.1c-0.6,0-1.2,0-1.8,0.1l0,0c-5.5,0.3-11.2,1.8-17,4.5c-13.2,6-24.5,4.8-31.7,2.6v-9.9
	c3.4,1,7.6,1.8,12.3,1.8c5.9,0,12.7-1.2,20-4.5c19.4-8.9,31.6-1.6,33.6-0.3C84.3,46.8,84.3,58.8,84.2,58.8z M84.2,45
	c-3.7-2.2-15.8-7.7-34.2,0.7c-13.2,6-24.4,4.8-31.7,2.6V35c3.4,1,7.6,1.8,12.3,1.8c5.9,0,12.7-1.2,20-4.5
	c19.4-8.9,31.6-1.6,33.6-0.3C84.2,32,84.2,45,84.2,45z M84.2,30.2c-3.7-2.2-15.8-7.7-34.2,0.7c-13.2,6-24.5,4.8-31.7,2.6V20.1
	c3.4,1,7.6,1.8,12.3,1.8c5.9,0,12.7-1.2,20-4.5c19.4-8.9,31.6-1.6,33.6-0.3C84.2,17.1,84.2,30.2,84.2,30.2z M84.2,15.3
	C80.5,13.1,68.5,7.6,50,16c-13.2,6-24.4,4.8-31.7,2.6V8.7c7,2,18.8,3.5,32.4-2.7C70.1-3,82.3,4.3,84.2,5.6V15.3z"/>
</svg>
