<?xml version="1.0" encoding="utf-8"?>
<!-- Generator: Adobe Illustrator 23.1.0, SVG Export Plug-In . SVG Version: 6.00 Build 0)  -->
<svg version="1.1" id="Layer_1" xmlns="http://www.w3.org/2000/svg" xmlns:xlink="http://www.w3.org/1999/xlink" x="0px" y="0px"
	 viewBox="0 0 25 25" style="enable-background:new 0 0 25 25;" xml:space="preserve">
<path d="M12.5,0C5.6,0,0,5.6,0,12.5C0,19.4,5.6,25,12.5,25C19.4,25,25,19.4,25,12.5C25,5.6,19.4,0,12.5,0z M19.5,9.2
	c0,0-0.1,0.1-0.1,0.1c-2.8,2.9-5.7,5.7-8.6,8.6c-0.2,0.2-0.5,0.4-0.8,0.2c-0.1,0-0.2-0.1-0.3-0.2c-1.4-1.4-2.8-2.8-4.2-4.2
	c-0.5-0.5-0.5-1.2,0-1.7C5.7,12,5.8,11.8,6,11.7c0.5-0.5,1.2-0.5,1.7,0c0.8,0.8,1.6,1.6,2.5,2.5c0,0,0.1,0.1,0.2,0.2
	c0-0.1,0.1-0.1,0.1-0.2c2.3-2.3,4.6-4.6,6.9-6.9c0.6-0.6,1.2-0.6,1.8,0c0.1,0.2,0.3,0.3,0.4,0.5C20,8.1,19.9,8.8,19.5,9.2z"/>
</svg>
