<?xml version="1.0" encoding="utf-8"?>
<!-- Generator: Adobe Illustrator 23.1.0, SVG Export Plug-In . SVG Version: 6.00 Build 0)  -->
<svg version="1.1" id="Layer_1" xmlns="http://www.w3.org/2000/svg" xmlns:xlink="http://www.w3.org/1999/xlink" x="0px" y="0px"
	 viewBox="0 0 20 20" style="enable-background:new 0 0 20 20;" xml:space="preserve">
<g>
	<path d="M10,20C4.5,20,0,15.5,0,10S4.5,0,10,0s10,4.5,10,10S15.5,20,10,20z M10,1.1c-4.9,0-8.9,4-8.9,8.9s4,8.9,8.9,8.9
		s8.9-4,8.9-8.9S14.9,1.1,10,1.1z"/>
</g>
<g>
	<path d="M13.9,14.4c-0.1,0-0.3-0.1-0.4-0.2l-3.9-3.9c-0.1-0.1-0.2-0.2-0.2-0.4V3.2c0-0.3,0.2-0.5,0.5-0.5s0.5,0.2,0.5,0.5v6.6
		l3.7,3.7c0.2,0.2,0.2,0.5,0,0.7C14.1,14.3,14,14.4,13.9,14.4z"/>
</g>
</svg>
