<?xml version="1.0" encoding="utf-8"?>
<!-- Generator: Adobe Illustrator 23.1.0, SVG Export Plug-In . SVG Version: 6.00 Build 0)  -->
<svg version="1.1" id="Layer_1" xmlns="http://www.w3.org/2000/svg" xmlns:xlink="http://www.w3.org/1999/xlink" x="0px" y="0px"
	 viewBox="0 0 20 12.9" style="enable-background:new 0 0 20 12.9;" xml:space="preserve">
<g>
	<g>
		<g>
			<path d="M17.8,0H2.2C1,0,0,1,0,2.2v8.6c0,1.2,1,2.2,2.2,2.2h15.6c1.2,0,2.2-1,2.2-2.2V2.2C20,1,19,0,17.8,0z M19.2,10.8
				c0,0.8-0.6,1.4-1.4,1.4H2.2c-0.8,0-1.4-0.6-1.4-1.4V2.2c0-0.8,0.6-1.4,1.4-1.4h15.6c0.8,0,1.4,0.6,1.4,1.4V10.8z"/>
			<path d="M17.5,2.1c-0.1-0.2-0.4-0.2-0.6,0l-5.1,4.7c0,0,0,0,0,0L10,8.4L3.1,2.1c-0.2-0.1-0.4-0.1-0.6,0c-0.1,0.2-0.1,0.4,0,0.6
				L7.3,7l-4.7,3.3c-0.2,0.1-0.2,0.4-0.1,0.5C2.6,10.9,2.7,11,2.8,11C2.9,11,3,11,3,10.9l4.9-3.4l1.8,1.7C9.8,9.3,9.9,9.3,10,9.3
				c0.1,0,0.2,0,0.3-0.1l1.8-1.7l4.9,3.4c0.1,0,0.1,0.1,0.2,0.1c0.1,0,0.2-0.1,0.3-0.2c0.1-0.2,0.1-0.4-0.1-0.5L12.7,7l4.8-4.3
				C17.6,2.5,17.6,2.2,17.5,2.1z"/>
		</g>
	</g>
</g>
</svg>
