<?xml version="1.0" encoding="utf-8"?>
<!-- Generator: Adobe Illustrator 23.1.0, SVG Export Plug-In . SVG Version: 6.00 Build 0)  -->
<svg version="1.1" xmlns="http://www.w3.org/2000/svg" xmlns:xlink="http://www.w3.org/1999/xlink" x="0px" y="0px"
	 viewBox="0 0 20 20" style="enable-background:new 0 0 20 20;" xml:space="preserve">
<g id="Layer_2">
</g>
<g id="Layer_1">
	<g>
		<path d="M19,13.6l-3.8-2c-0.8-0.4-1.9-0.2-2.5,0.5l-1,1.3c-1-0.6-1.9-1.2-2.9-2.2c-1-1-1.7-1.9-2.2-3l1.3-1c0.7-0.6,1-1.6,0.5-2.5
			l-2-3.8c-0.3-0.5-0.7-0.9-1.3-1C4.6-0.1,4.1,0,3.6,0.3L1.2,1.9C0.4,2.5,0,3.3,0,4.3c0.1,1,0.2,1.8,0.3,2.3
			c0.7,2.8,2.5,5.8,4.9,8.2c2.5,2.5,5.4,4.2,8.2,4.9c0.5,0.1,1.3,0.2,2.3,0.3c0,0,0.1,0,0.2,0c0.9,0,1.7-0.4,2.2-1.2l1.6-2.4
			c0.3-0.5,0.4-1,0.2-1.6C19.8,14.3,19.5,13.9,19,13.6z M18.5,15.7l-1.6,2.4c-0.2,0.4-0.6,0.6-1.1,0.5c-0.9,0-1.6-0.1-2-0.3
			c-2.6-0.7-5.3-2.3-7.5-4.6c-2.3-2.3-3.9-5-4.6-7.5c-0.1-0.4-0.2-1.2-0.3-2c0-0.4,0.2-0.8,0.5-1.1l2.4-1.6c0.1-0.1,0.2-0.1,0.3-0.1
			c0,0,0.1,0,0.1,0c0.1,0,0.3,0.1,0.4,0.3l2,3.8c0.1,0.2,0,0.5-0.1,0.7L4.7,8L5,8.5c0.7,1.4,1.4,2.5,2.8,3.8c1.3,1.3,2.4,2,3.8,2.7
			l0.5,0.3l1.8-2.3c0.2-0.2,0.4-0.3,0.7-0.1l3.8,2c0.1,0.1,0.2,0.2,0.3,0.4C18.6,15.4,18.6,15.5,18.5,15.7z"/>
	</g>
</g>
</svg>
