<?xml version="1.0" encoding="utf-8"?>
<!-- Generator: Adobe Illustrator 23.1.0, SVG Export Plug-In . SVG Version: 6.00 Build 0)  -->
<svg version="1.1" id="Layer_1" xmlns="http://www.w3.org/2000/svg" xmlns:xlink="http://www.w3.org/1999/xlink" x="0px" y="0px"
	 viewBox="0 0 49.7 49.7" style="enable-background:new 0 0 49.7 49.7;" xml:space="preserve">
<g>
	<path d="M35.6,32.8c0.8,0.7,0.9,2,0.1,2.8c-0.7,0.8-2,0.9-2.8,0.1c0,0-0.1-0.1-0.1-0.1l-9.3-9.3l0,0l0,0c-0.1-0.1-0.2-0.2-0.2-0.3
		l-0.1-0.1c0-0.1-0.1-0.1-0.1-0.2c0-0.1,0-0.1-0.1-0.2l-0.1-0.2c0-0.1,0-0.2,0-0.3l0,0V11.8c0-1.1,0.9-2,2-2s2,0.9,2,2V24L35.6,32.8
		z M49.7,24.9c0,13.7-11.1,24.8-24.9,24.8S0,38.6,0,24.9S11.1,0,24.8,0c0,0,0,0,0,0C38.6,0,49.7,11.1,49.7,24.9z M45.7,24.9
		C45.7,13.3,36.4,4,24.9,4C13.3,4,4,13.3,4,24.8c0,11.5,9.3,20.9,20.8,20.9h0C36.4,45.7,45.7,36.4,45.7,24.9z"/>
</g>
</svg>
