<?xml version="1.0" encoding="utf-8"?>
<!-- Generator: Adobe Illustrator 23.1.0, SVG Export Plug-In . SVG Version: 6.00 Build 0)  -->
<svg version="1.1" id="Layer_1" xmlns="http://www.w3.org/2000/svg" xmlns:xlink="http://www.w3.org/1999/xlink" x="0px" y="0px"
	 viewBox="0 0 42 48" style="enable-background:new 0 0 42 48;" xml:space="preserve">
<path d="M0,46c0,1.1,0.9,2,2,2h38c1.1,0,2-0.9,2-2V21C42,9.4,32.6,0,21,0S0,9.4,0,21V46z M2,21C2,10.5,10.5,2,21,2s19,8.5,19,19v25
	H2V21z"/>
<path d="M20.1,4C11.1,4.5,4,12.1,4,21.5v21C4,43.3,4.7,44,5.5,44h31c0.8,0,1.5-0.7,1.5-1.5V21c0-4.7-1.9-9.1-5.3-12.3
	C29.3,5.4,24.8,3.8,20.1,4z M20,6v19H6v-3.5C6,13.3,12.1,6.6,20,6z M6,27h14v15H6V27z M22,42V27h14v15H22z M36,25H22V6
	c3.5,0.2,6.8,1.6,9.3,4.1C34.3,13,36,16.9,36,21V25z"/>
<path d="M26,12c-0.6,0-1,0.4-1,1v1c0,0.6,0.4,1,1,1s1-0.4,1-1v-1C27,12.4,26.6,12,26,12z"/>
<path d="M30,16.9v1c0,0.6,0.4,1,1,1s1-0.4,1-1v-1c0-0.6-0.4-1-1-1S30,16.4,30,16.9z"/>
<path d="M25,19.5c-0.6,0-1,0.4-1,1v1c0,0.6,0.4,1,1,1s1-0.4,1-1v-1C26,19.9,25.6,19.5,25,19.5z"/>
<path d="M31,31v-1c0-0.6-0.4-1-1-1s-1,0.4-1,1v1c0,0.6,0.4,1,1,1S31,31.6,31,31z"/>
<path d="M25,32.9c-0.6,0-1,0.4-1,1v1c0,0.6,0.4,1,1,1s1-0.4,1-1v-1C26,33.4,25.6,32.9,25,32.9z"/>
<path d="M31,36.5c-0.6,0-1,0.4-1,1v1c0,0.6,0.4,1,1,1s1-0.4,1-1v-1C32,36.9,31.6,36.5,31,36.5z"/>
<path d="M12,36.5c-0.6,0-1,0.4-1,1v1c0,0.6,0.4,1,1,1s1-0.4,1-1v-1C13,36.9,12.6,36.5,12,36.5z"/>
<path d="M17,32.6c-0.6,0-1,0.4-1,1v1c0,0.6,0.4,1,1,1s1-0.4,1-1v-1C18,33,17.6,32.6,17,32.6z"/>
<path d="M12,31v-1c0-0.6-0.4-1-1-1s-1,0.4-1,1v1c0,0.6,0.4,1,1,1S12,31.6,12,31z"/>
<path d="M16,22.5c0.6,0,1-0.4,1-1v-1c0-0.6-0.4-1-1-1s-1,0.4-1,1v1C15,22.1,15.4,22.5,16,22.5z"/>
<path d="M11,18.6c0.6,0,1-0.4,1-1v-1c0-0.6-0.4-1-1-1s-1,0.4-1,1v1C10,18.1,10.4,18.6,11,18.6z"/>
<path d="M17,15c0.6,0,1-0.4,1-1v-1c0-0.6-0.4-1-1-1s-1,0.4-1,1v1C16,14.6,16.4,15,17,15z"/>
</svg>
