<?xml version="1.0" encoding="utf-8"?>
<!-- Generator: Adobe Illustrator 23.1.0, SVG Export Plug-In . SVG Version: 6.00 Build 0)  -->
<svg version="1.1" id="Layer_1" xmlns="http://www.w3.org/2000/svg" xmlns:xlink="http://www.w3.org/1999/xlink" x="0px" y="0px"
	 viewBox="0 0 20 16" style="enable-background:new 0 0 20 16;" xml:space="preserve">
<title>youtube_stream_video</title>
<path d="M16.2,0.5c-4.1-0.7-8.3-0.7-12.4,0C1.5,1,0,2.5,0,4.5v7c0,2,1.5,3.5,3.8,4c2,0.3,4.1,0.5,6.2,0.5c2.1,0,4.1-0.2,6.2-0.5
	c2.3-0.4,3.8-2,3.8-4v-7C20,2.5,18.5,0.9,16.2,0.5z M13.3,8.4l-5,3c-0.1,0-0.2,0.1-0.3,0.1c-0.1,0-0.2,0-0.2-0.1
	c-0.2-0.1-0.3-0.3-0.2-0.5V5c0-0.2,0.1-0.3,0.2-0.4c0.2-0.1,0.4-0.1,0.5,0l5,3c0.2,0.2,0.3,0.5,0.2,0.7C13.4,8.3,13.3,8.4,13.3,8.4
	L13.3,8.4z"/>
</svg>
