<?xml version="1.0" encoding="utf-8"?>
<!-- Generator: Adobe Illustrator 23.1.0, SVG Export Plug-In . SVG Version: 6.00 Build 0)  -->
<svg version="1.1" id="Layer_1" xmlns="http://www.w3.org/2000/svg" xmlns:xlink="http://www.w3.org/1999/xlink" x="0px" y="0px"
	 viewBox="0 0 56.7 56.7" style="enable-background:new 0 0 56.7 56.7;" xml:space="preserve">
<style type="text/css">
	.st0{fill:none;}
</style>
<title>arrow direction navigation right next</title>
<path d="M37.9,48l18.2-18.2c0.2-0.2,0.4-0.5,0.5-0.9c0.2-0.7,0-1.5-0.5-2L37.9,8.7c-0.8-0.8-2.1-0.8-2.9,0c-0.8,0.8-0.8,2,0,2.8
	l14.8,14.8H2c-1.1,0-2,0.9-2,2c0,1.1,0.9,2,2,2h47.8L35,45.1c-0.8,0.8-0.8,2.1,0,2.9C35.8,48.8,37.1,48.8,37.9,48z"/>
<rect class="st0" width="56.7" height="56.7"/>
</svg>
