<?xml version="1.0" encoding="utf-8"?>
<!-- Generator: Adobe Illustrator 23.1.0, SVG Export Plug-In . SVG Version: 6.00 Build 0)  -->
<svg version="1.1" id="Layer_1" xmlns="http://www.w3.org/2000/svg" xmlns:xlink="http://www.w3.org/1999/xlink" x="0px" y="0px"
	 viewBox="0 0 26 30.4" style="enable-background:new 0 0 26 30.4;" xml:space="preserve">
<path d="M12.8,30.3c0.2,0,0.3,0,0.5,0C20.7,28.5,26,21.7,26,14V6c0-0.6-0.4-1-1-1c-4.2-0.2-8.2-1.8-11.3-4.7c-0.4-0.4-1-0.4-1.4,0
	C7.7,4.9,1.1,5,1,5C0.4,5,0,5.4,0,6v8C0,21.7,5.3,28.5,12.8,30.3z M2,6.9C6.1,6.6,9.9,5,13,2.4c3.1,2.6,6.9,4.2,11,4.6V14
	c0,6.7-4.5,12.6-11,14.3C6.5,26.6,2,20.7,2,14V6.9z"/>
<path d="M11.3,18.7c0.4,0.4,1,0.4,1.4,0l6-6c0.4-0.4,0.4-1,0-1.4c-0.4-0.4-1-0.4-1.4,0L12,16.6l-2.3-2.3c-0.4-0.4-1-0.4-1.4,0
	c-0.4,0.4-0.4,1,0,1.4L11.3,18.7z"/>
</svg>
