<?xml version="1.0" encoding="utf-8"?>
<!-- Generator: Adobe Illustrator 23.1.0, SVG Export Plug-In . SVG Version: 6.00 Build 0)  -->
<svg version="1.1" id="Layer_1" xmlns="http://www.w3.org/2000/svg" xmlns:xlink="http://www.w3.org/1999/xlink" x="0px" y="0px"
	 viewBox="0 0 461.6 419.3" style="enable-background:new 0 0 461.6 419.3;" xml:space="preserve">
<path d="M403.2,199.8c-2.6,0-5.1,0.1-7.5,0.2c21.1-137.4,5.7-156.6-23.1-178.3C342.2-1.3,247.6,0,243.7,0h-25.8
	c-4-0.1-98.5-1.3-129,21.7C60.2,43.4,44.8,62.6,65.9,200C26.7,196.5,0,220.1,0,264.6c-0.3,15.3,5.6,30,16.4,40.8
	c5.5,5.6,12.3,9.6,19.9,11.8c12.4,3.3,22,13.2,24.9,25.8c3.8,14.8,2.1,51.1,2.4,67.3c0,5,4,9,9,9c0,0,47.1,0,47.1,0
	c34.4,0,239.8,0,269.1,0c5,0,9-4,9-9c0.4-16.4-1.4-52.4,2.4-67.3c2.9-12.5,12.5-22.5,24.9-25.8c7.5-2.2,14.4-6.2,19.9-11.8
	c10.8-10.8,16.7-25.5,16.4-40.8C461,223.4,439.8,199.8,403.2,199.8z M95,29.7C135.1,4.9,223.8,11.2,243.8,10
	c0.9,0,95.1-1.3,122.8,19.6c23.6,17.8,40.6,30.7,18.8,171.5c-33.8,4.9-49.4,31-48.6,53.3v38.9c-19.7-9.6-41.2-15-63.1-15.8
	c-48.8-0.4-104.4-6.3-148.9,15.6v-38.7c0.8-22.4-14.8-48.4-48.6-53.3C54.3,60.4,71.4,47.5,95,29.7z M336.8,327h-212v-22.6
	c18.1-9.7,40.5-15.6,63.5-16.8c28.2-1.1,56.8-1.1,85,0c22.2,0.7,43.9,6.6,63.5,17L336.8,327z M124.8,337h212v72.3h-212L124.8,337z
	 M71,340.8c-3.7-16.1-16-28.9-32-33.2c-17.8-5.1-29.4-24.1-29-42.8c0.3-25.1,9-55,48.3-55c20.5,0,35.7,5.2,45.3,15.3
	c7.3,8,11.3,18.4,11.1,29.2c0,38.6,0,116.4,0,155c-9.9,0-31,0-41.1,0C73.3,392,75.1,356.6,71,340.8L71,340.8z M438.1,298.3
	c-4.3,4.4-9.7,7.6-15.6,9.3c-29.3,9-34.8,33-34.7,61.1v40.6c-10.1,0-31.1,0-41.1,0c0-38.7,0-116.4,0-155c0-0.1,0-0.2,0-0.3
	c0-0.2-0.8-16.4,11.1-28.9c9.6-10.2,24.9-15.3,45.3-15.3c39.4,0,48,29.9,48.3,55C451.8,277.3,447,289.4,438.1,298.3z"/>
<path d="M220.6,63.2h5.1v5.1c0,2.8,2.2,5,5,5s5-2.2,5-5v-5.1h5.1c2.8,0,5-2.2,5-5s-2.2-5-5-5h-5.1V48c0-2.8-2.2-5-5-5s-5,2.2-5,5
	v5.1h-5.1C214,53.4,214,63,220.6,63.2z"/>
<path d="M220.6,222.9h5.1v5.1c0,2.8,2.2,5,5,5s5-2.2,5-5v-5.1h5.1c2.8,0,5-2.2,5-5s-2.2-5-5-5h-5.1v-5.1c0-2.8-2.2-5-5-5s-5,2.2-5,5
	v5.1h-5.1C214,213.1,214,222.7,220.6,222.9z"/>
<path d="M140.8,143h5.1v5.1c0,2.8,2.2,5,5,5s5-2.2,5-5V143h5.2c2.8,0,5-2.2,5-5s-2.2-5-5-5h-5.1v-5.1c0-2.8-2.2-5-5-5s-5,2.2-5,5
	v5.1h-5.2C134.2,133.2,134.2,142.8,140.8,143z"/>
<path d="M300.5,143h5.1v5.1c0,2.8,2.2,5,5,5s5-2.2,5-5V143h5.2c2.8,0,5-2.2,5-5s-2.2-5-5-5h-5.1v-5.1c0-2.8-2.2-5-5-5s-5,2.2-5,5
	v5.1h-5.2C293.9,133.2,293.9,142.8,300.5,143z"/>
</svg>
