<?xml version="1.0" encoding="utf-8"?>
<!-- Generator: Adobe Illustrator 23.1.0, SVG Export Plug-In . SVG Version: 6.00 Build 0)  -->
<svg version="1.1" id="Layer_1" xmlns="http://www.w3.org/2000/svg" xmlns:xlink="http://www.w3.org/1999/xlink" x="0px" y="0px"
	 viewBox="0 0 397.7 138.3" style="enable-background:new 0 0 397.7 138.3;" xml:space="preserve">
<style type="text/css">
	.st0{font-family:'Poppins-Regular';}
	.st1{font-size:37.8337px;}
	.st2{font-size:26.4556px;}
	.st3{fill-rule:evenodd;clip-rule:evenodd;}
</style>
<text transform="matrix(1 0 0 1 141.0444 116.7018)" class="st0 st1">Star Cleaning</text>
<text transform="matrix(1 0 0 1 141.0444 82.2106)" class="st0 st2">The</text>
<g>
	<path class="st3" d="M63.6,103.7v10.3c0,0.7-0.5,1.2-1.2,1.2H49.4c-0.7,0-1.2-0.5-1.2-1.2v-10.3c0-0.7,0.5-1.2,1.2-1.2h13.1
		C63.1,102.5,63.6,103.1,63.6,103.7z"/>
	<path class="st3" d="M63.6,120.4v10.3c0,0.4-0.2,0.7-0.4,0.9c-5.2-0.2-10.2-1-15-2.3v-9c0-0.7,0.5-1.2,1.2-1.2h13.1
		C63.1,119.2,63.6,119.7,63.6,120.4z"/>
	<path class="st3" d="M83,103.7v10.3c0,0.7-0.5,1.2-1.2,1.2H68.7c-0.7,0-1.2-0.5-1.2-1.2v-10.3c0-0.7,0.5-1.2,1.2-1.2h13.1
		C82.4,102.5,83,103.1,83,103.7z"/>
	<path class="st3" d="M83,120.4v9c-4.8,1.3-9.8,2.1-15,2.3c-0.3-0.2-0.4-0.6-0.4-0.9v-10.3c0-0.7,0.5-1.2,1.2-1.2h13.1
		C82.4,119.2,83,119.7,83,120.4z"/>
	<g>
		<path class="st3" d="M65.8,0C29.5,0,0,29.5,0,65.8c0,19.2,8.2,36.4,21.3,48.5v-12.6c0-1.2,0.7-2.4,1.6-3.1l41.3-32.7
			c1-0.8,2.4-0.8,3.4,0l41.3,32.7c1.1,0.8,1.6,2,2,3.1v12.1c12.8-12,20.8-29.1,20.8-48C131.7,29.5,102.2,0,65.8,0z M41,23.6
			c3.2-1.1,5.7-3.6,6.8-6.8l2.3-7l2.3,7c1.1,3.2,3.6,5.7,6.8,6.8l7,2.3l-7,2.3c-3.2,1.1-5.7,3.6-6.8,6.8l-2.3,7l-2.3-7
			c-1.1-3.2-3.6-5.7-6.8-6.8L34,26L41,23.6z M50.2,49.1l-3.6,1.2c-2.1,0.7-3.7,2.3-4.4,4.4L41,58.3l-1.2-3.6
			c-0.7-2.1-2.3-3.7-4.4-4.4l-3.6-1.2l3.6-1.2c2.1-0.7,3.7-2.3,4.4-4.4l1.2-3.6l1.2,3.6c0.7,2.1,2.3,3.7,4.4,4.4L50.2,49.1z
			 M21.5,34c2.1-0.7,3.7-2.3,4.4-4.4l1.2-3.6l1.2,3.6c0.7,2.1,2.3,3.7,4.4,4.4l3.6,1.2l-3.6,1.2c-2.1,0.7-3.7,2.3-4.4,4.4l-1.2,3.6
			l-1.2-3.6c-0.7-2.1-2.3-3.7-4.4-4.4l-3.6-1.2L21.5,34z M115.7,98.9c-1,0-2.1-0.4-2.9-1L67.6,62.1c-1-0.8-2.5-0.8-3.5,0L18.8,97.8
			c-2.2,1.7-5.6,1-7-1.6c-0.9-2-0.3-4.5,1.4-5.8c8-6.3,40.1-31.5,49.8-39.2c1.7-1.3,4.1-1.3,5.8,0l20.6,16V51.6
			c0-1.2,0.9-2.1,2.1-2.1h7.6c1.2,0,2.1,0.9,2.1,2.1v25.4l17.2,13.5c2,1.6,2.4,4.5,0.8,6.6C118.4,98.2,117.1,98.9,115.7,98.9z"/>
	</g>
</g>
</svg>
