<?xml version="1.0" encoding="utf-8"?>
<!-- Generator: Adobe Illustrator 23.1.0, SVG Export Plug-In . SVG Version: 6.00 Build 0)  -->
<svg version="1.1" id="Layer_1" xmlns="http://www.w3.org/2000/svg" xmlns:xlink="http://www.w3.org/1999/xlink" x="0px" y="0px"
	 viewBox="0 0 587.6 543.1" style="enable-background:new 0 0 587.6 543.1;" xml:space="preserve">
<style type="text/css">
	.st0{fill:#17324D;}
	.st1{font-family:'OpenSans-Semibold';}
	.st2{font-size:29px;}
	.st3{letter-spacing:4;}
	.st4{font-family:'Forum';}
	.st5{font-size:90px;}
	.st6{letter-spacing:3;}
</style>
<g>
	<text transform="matrix(1 -3.000000e-05 3.000000e-05 1 5.284486e-04 534.9366)" class="st0 st1 st2 st3">PROFESSIONAL HOUSE CLEANING</text>
	<text transform="matrix(1 -3.000000e-05 3.000000e-05 1 163.1492 363.6626)"><tspan x="0" y="0" class="st0 st4 st5 st6">GREAT</tspan><tspan x="-76" y="88" class="st0 st4 st5 st6">CLEANING</tspan></text>
</g>
<g>
	<g>
		<polygon class="st0" points="131.5,141.2 131.5,176.4 91.5,177.3 91.2,146.3 		"/>
		<polygon class="st0" points="179.6,175.4 140.1,176.3 139.1,176.3 139.1,140.2 179.4,135.1 		"/>
		<polygon class="st0" points="131.5,183.2 131.6,217.9 91.8,213.3 91.5,183.3 91.8,183.3 		"/>
		<polygon class="st0" points="179.8,223.3 139.1,218.7 139.1,183.1 140.1,183.1 179.6,182.9 		"/>
	</g>
	<g>
		<polygon class="st0" points="480.6,179.7 480.5,208.6 447.7,212.9 447.7,180.1 		"/>
		<polygon class="st0" points="480.6,147 480.6,174.9 447.7,174.5 447.7,142.6 		"/>
		<polyline class="st0" points="485.2,179.6 485.2,207.9 518,203.6 518,179.2 		"/>
		<polyline class="st0" points="518,175.4 518,152 485.2,147.6 485.2,175 		"/>
	</g>
	<polygon class="st0" points="3.1,182.9 134.8,2.8 174.7,38.4 488,0 580.9,182 485.2,54.4 365.2,205.4 289.2,205.4 136.3,52.5 	"/>
</g>
</svg>
