<svg xmlns="http://www.w3.org/2000/svg" viewBox="0 0 25 31.25" x="0px" y="0px"><g data-name="Page Error"><path d="M20.5,3H4.5A1.5,1.5,0,0,0,3,4.5v16A1.5,1.5,0,0,0,4.5,22h16A1.5,1.5,0,0,0,22,20.5V4.5A1.5,1.5,0,0,0,20.5,3ZM19.15,5.15a.5.5,0,0,1,.7,0,.5.5,0,1,1-.7,0Zm-2,0a.5.5,0,0,1,.7,0,.483.483,0,0,1,0,.7.355.355,0,0,1-.16.11A.433.433,0,0,1,17.5,6a.5.5,0,0,1-.35-.85Zm-2,0a.355.355,0,0,1,.16-.11.5.5,0,0,1,.54.11A.469.469,0,0,1,16,5.5a.406.406,0,0,1-.04.19.355.355,0,0,1-.11.16.483.483,0,0,1-.7,0,.355.355,0,0,1-.11-.16A.406.406,0,0,1,15,5.5.469.469,0,0,1,15.15,5.15ZM21,20.5a.5.5,0,0,1-.5.5H4.5a.5.5,0,0,1-.5-.5V8H21ZM12,17h1a1.5,1.5,0,0,0,1.5-1.5v-4A1.5,1.5,0,0,0,13,10H12a1.5,1.5,0,0,0-1.5,1.5v4A1.5,1.5,0,0,0,12,17Zm-.5-5.5A.5.5,0,0,1,12,11h1a.5.5,0,0,1,.5.5v4a.5.5,0,0,1-.5.5H12a.5.5,0,0,1-.5-.5ZM5.6,14.808a.5.5,0,0,1-.091-.429l1-4a.5.5,0,0,1,.971.242L6.634,14H8.493V10.5a.5.5,0,0,1,1,0v6a.5.5,0,0,1-1,0V15h-2.5A.5.5,0,0,1,5.6,14.808Zm10.006,0a.5.5,0,0,1-.09-.429l1-4a.5.5,0,0,1,.97.242L16.641,14H18.5V10.5a.5.5,0,0,1,1,0v6a.5.5,0,0,1-1,0V15H16A.5.5,0,0,1,15.605,14.808ZM14.5,18a.5.5,0,0,1,0,1h-1a.5.5,0,0,1,0-1Zm-4.5.5a.5.5,0,0,1,.5-.5h1a.5.5,0,0,1,0,1h-1A.5.5,0,0,1,10,18.5Zm-1,0a.5.5,0,0,1-.5.5h-1a.5.5,0,0,1,0-1h1A.5.5,0,0,1,9,18.5Zm9,0a.5.5,0,0,1-.5.5h-1a.5.5,0,0,1,0-1h1A.5.5,0,0,1,18,18.5Z"/></g><text x="0" y="40" fill="#000000" font-size="5px" font-weight="bold" font-family="'Helvetica Neue', Helvetica, Arial-Unicode, Arial, Sans-serif">Created by The Icon Z</text><text x="0" y="45" fill="#000000" font-size="5px" font-weight="bold" font-family="'Helvetica Neue', Helvetica, Arial-Unicode, Arial, Sans-serif">from the Noun Project</text></svg>