<?xml version="1.0" encoding="utf-8"?>
<!-- Generator: Adobe Illustrator 23.1.0, SVG Export Plug-In . SVG Version: 6.00 Build 0)  -->
<svg version="1.1" id="Layer_1" xmlns="http://www.w3.org/2000/svg" xmlns:xlink="http://www.w3.org/1999/xlink" x="0px" y="0px"
	 viewBox="0 0 823 823" style="enable-background:new 0 0 823 823;" xml:space="preserve">
<g>
	<path d="M411,0c227,0,412,184,412,411S638,823,411,823S0,638,0,411S184,0,411,0z M411,469L263,618c-38,38-96-20-58-58l148-149
		L205,263c-38-38,20-96,58-58l148,148l149-148c38-38,96,20,58,58L469,411l149,149c38,38-20,96-58,58L411,469z M411,20
		C195,20,20,195,20,411s175,392,391,392s392-176,392-392S627,20,411,20z"/>
</g>
</svg>
