<?xml version="1.0" encoding="utf-8"?>
<!-- Generator: Adobe Illustrator 23.1.0, SVG Export Plug-In . SVG Version: 6.00 Build 0)  -->
<svg version="1.1" id="Layer_1" xmlns="http://www.w3.org/2000/svg" xmlns:xlink="http://www.w3.org/1999/xlink" x="0px" y="0px"
	 viewBox="0 0 20 20" style="enable-background:new 0 0 20 20;" xml:space="preserve">
<title>Artboard 98</title>
<path d="M16.7,0H3.3C1.5,0,0,1.5,0,3.3v13.3C0,18.5,1.5,20,3.3,20h13.3c1.8,0,3.3-1.5,3.3-3.3V3.3C20,1.5,18.5,0,16.7,0z M18.3,16.7
	c0,0.9-0.7,1.7-1.7,1.7H3.3c-0.9,0-1.7-0.7-1.7-1.7V3.3c0-0.9,0.7-1.7,1.7-1.7h13.3c0.9,0,1.7,0.7,1.7,1.7V16.7z"/>
<path d="M10,5c-2.8,0-5,2.2-5,5s2.2,5,5,5s5-2.2,5-5S12.8,5,10,5z M10,13.3c-1.8,0-3.3-1.5-3.3-3.3S8.2,6.7,10,6.7s3.3,1.5,3.3,3.3
	S11.8,13.3,10,13.3z"/>
<circle cx="15.4" cy="4.6" r="1.2"/>
</svg>
