<?xml version="1.0" encoding="utf-8"?>
<!-- Generator: Adobe Illustrator 23.1.0, SVG Export Plug-In . SVG Version: 6.00 Build 0)  -->
<svg version="1.1" id="Layer_1" xmlns="http://www.w3.org/2000/svg" xmlns:xlink="http://www.w3.org/1999/xlink" x="0px" y="0px"
	 viewBox="0 0 128 128" style="enable-background:new 0 0 128 128;" xml:space="preserve">
<title>Miscellaneous 17 final</title>
<path d="M11.3,128H117c5.4-0.1,9.9-4.2,10.6-9.5c0.6-7.9,0.6-15.7-0.1-23.6C126.1,73.2,92.4,68.6,91,68.4c-5.2-0.9-7.7-5.2-8.8-8.4
	c5-6.1,8.6-13.2,10.7-20.8c0.8-3,1.3-6.1,1.3-9.2c0-0.9,0-1.7-0.1-2.5c3.5-5.8,3.4-12.9,2.4-17c-0.3-1.3-0.9-4-3.1-3.8
	C88.6,7.2,79.1,4,75.8,2.8C55.5-5.5,43.5,7,41.2,9.8C28,14.7,34.7,39.4,35,40.5c0.1,0.3,0.2,0.6,0.5,0.8c1.8,7.3,5.3,14.2,10.1,20
	c-1.3,3-3.7,6.3-8.2,7.1c-1.5,0.2-35.1,4.7-36.6,26.4c-1,7.9-1.1,15.8-0.3,23.7C1.3,123.9,5.9,127.9,11.3,128z M67.8,124h-5.7v-0.1
	c0-3.6-0.5-7.2-1.6-10.6l3-22.1h2l3.7,23C68.3,117.4,67.8,120.7,67.8,124z M64.5,81.4c0.4,0.8,3.5,5.8,3.5,5.8h-7
	C61,87.2,64.3,82,64.5,81.4z M63.1,73.7L57.5,69c2,0.5,4,0.8,6.1,0.8c3.4,0,6.7-0.8,9.7-2.3l-7.4,6.2c-0.1,0.1-0.1,0.1-0.2,0.2
	c-0.2,0.2-0.3,0.4-0.5,0.7h-1.4c-0.2-0.2-0.3-0.5-0.5-0.7C63.3,73.8,63.2,73.8,63.1,73.7z M100.8,74.8c9.4,2.9,22,8.9,22.7,20.4
	c0.7,7.6,0.7,15.3,0.1,22.9c-0.4,3.3-3.2,5.8-6.6,5.9H71.8c0-7.1,2.3-14,6.6-19.6l22-29C100.6,75.2,100.7,75,100.8,74.8z M96.8,73.7
	L75.3,102c-1.2,1.6-2.3,3.2-3.2,5l-2.6-16c0.2-0.1,0.4-0.2,0.5-0.3c0,0,0.3,0.4,0.3,0.5c1,1.3,2.7,2,4.3,1.9
	c1.6-0.3,2.9-1.4,3.6-2.8l12.5-17.8C91.7,72.6,93.9,73,96.8,73.7L96.8,73.7z M86.4,71.9c0,0-11.5,16.5-11.6,16.6
	c-0.2,0.4-0.7,0.5-1.1,0.3c-0.1-0.1-0.2-0.2-0.3-0.3c0,0-4.7-7.8-4.8-7.8c-0.9-1.2-0.9-2.8,0-4l11.9-9.9L86.4,71.9z M43,13.4
	c0.4-0.1,0.8-0.4,1-0.7C48.5,7.1,55.2,3.9,62.4,4c4.1,0.1,8.2,0.9,11.9,2.5l0,0c0.5,0.2,11.2,4.2,18,4.2l0,0c1,3.9,0.8,8-0.4,11.8
	c-1.5,4.3-4.8,7.6-9.1,9c-0.2,0.1-17.4,6.3-28.6-3.8c-0.8-0.7-2.1-0.6-2.8,0.2c-0.2,0.3-0.4,0.6-0.4,1l-0.7,5.3L46,31.5
	c-0.7-0.5-1.7-0.4-2.4,0.1l-5.5,4.6C36.9,29.9,35.1,15.8,43,13.4z M39.4,40.5l5.7-4.9l4.2,2.8c2,1.3,4.7,0.5,4.8-2.2l0.4-3.3
	c3.5,2.3,7.5,3.8,11.6,4.3c3.5,0.5,7.1,0.4,10.6-0.1c4.6-0.7,9.3-1.9,13-4.9c0.1,0,0.3-0.2,0.3-0.3c-0.1,2.1-0.5,4.1-1,6.1
	c-2.7,9.9-8,18.5-14.4,23.8c-7.6,6.2-19,4.9-25.9-3C44.3,53.6,41,47.3,39.4,40.5z M48.6,66.7l11.9,9.9c0.9,1.2,0.9,2.8,0,4
	c-0.1,0.1-5.5,8.5-5.6,8.5S42.7,71.9,42.7,71.9L48.6,66.7z M38,72.4h0.2l0.1,0.1l12.5,17.8c0.7,1.5,2,2.5,3.6,2.8c0.2,0,0.4,0,0.5,0
	c1.5,0,2.9-0.8,3.8-1.9l0.1-0.2c0.2,0.1,0.5,0.2,0.8,0.2l0,0l-2,14.9c-0.8-1.4-1.7-2.7-2.6-4L33,73.3C35.9,72.7,37.9,72.4,38,72.4z
	 M4.8,95.3c0-0.1,0-0.1,0-0.2c0.8-12,14.5-18,24-20.8l22.8,30.1c4.2,5.6,6.5,12.5,6.5,19.5v0.1H11.3c-3.4-0.1-6.2-2.6-6.7-5.9
	C3.8,110.5,3.8,102.9,4.8,95.3z"/>
<path d="M93.7,116.2l4.9,1.8l0.3,0.1c0.7,0.3,1.4,0.3,2.1,0l5.3-1.9c1.7-0.6,2.9-2.2,2.9-4v-8.9c0-2-1.6-3.6-3.6-3.6H94.4
	c-2,0-3.6,1.6-3.6,3.6v8.9C90.8,114,92,115.6,93.7,116.2z M94.8,103.7h10.5v8.4c0,0.1-0.1,0.1-0.1,0.2l-5,1.8H100h-0.1l-5-1.8
	c-0.1,0-0.1-0.1-0.2-0.2L94.8,103.7z"/>
<path d="M50.6,15.9c0.5,0,1-0.2,1.4-0.6c2.2-2.2,7.1-5.7,14.8-3.7c1.1,0.3,2.2-0.3,2.5-1.3c0.3-1.1-0.3-2.2-1.3-2.5c0,0-0.1,0-0.1,0
	c-6.6-1.9-13.7-0.1-18.6,4.7c-0.8,0.8-0.8,2,0,2.8C49.6,15.7,50.1,15.9,50.6,15.9L50.6,15.9z"/>
</svg>
