<?xml version="1.0" encoding="utf-8"?>
<!-- Generator: Adobe Illustrator 23.1.0, SVG Export Plug-In . SVG Version: 6.00 Build 0)  -->
<svg version="1.1"
	 id="Layer_1" xmlns:cc="http://creativecommons.org/ns#" xmlns:dc="http://purl.org/dc/elements/1.1/" xmlns:rdf="http://www.w3.org/1999/02/22-rdf-syntax-ns#"
	 xmlns="http://www.w3.org/2000/svg" xmlns:xlink="http://www.w3.org/1999/xlink" x="0px" y="0px" viewBox="0 0 92.5 76.4"
	 style="enable-background:new 0 0 92.5 76.4;" xml:space="preserve">
<g transform="translate(0,-952.36218)">
	<path d="M55.7,952.4c-6.9,0-14.8,4.9-16.9,15.2c-0.6,0-1.2-0.1-1.6-0.2c-2.6-0.5-5.8-0.3-8.1,1.5c-2.1,1.6-3.2,4.7-2.5,8.9
		c-3.4-3.1-8-3.5-11.8-2c-3.8,1.5-6.8,5.1-6.2,9.6c0.1,0.5,0.1,1,0.2,1.6c-5.1,1.8-8.8,6.4-8.8,12c0,7.1,6,12.8,13.3,12.8h15
		c1.1,9.5,9.4,16.9,19.5,16.9c10.1,0,18.5-7.4,19.5-16.9h11.8c7.3,0,13.3-5.7,13.3-12.8c0-6-4.3-11-10.1-12.4c1-2.7,0.6-5.6-0.7-7.8
		c-1.3-2.2-3.7-3.6-6.4-3.4c-0.4-6.1-2-11.5-4.8-15.5c-3-4.2-7.5-6.9-13.4-7.4c-0.4,0-0.8-0.1-1.2-0.1
		C55.8,952.4,55.8,952.4,55.7,952.4C55.7,952.4,55.7,952.4,55.7,952.4L55.7,952.4z M55.6,954.1C55.6,954.1,55.6,954.1,55.6,954.1
		c0.4,0,0.8,0,1.3,0.1c5.4,0.5,9.4,2.9,12.2,6.7c2.8,3.8,4.3,9.1,4.6,15.4c0,0.5,0.4,0.9,0.9,0.8c0,0,0.1,0,0.1,0
		c2.4-0.5,4.4,0.6,5.5,2.6c1.2,1.9,1.5,4.7,0.3,7.1c-0.2,0.4,0,1,0.4,1.2c0.1,0,0.2,0.1,0.3,0.1c5.5,0.9,9.6,5.5,9.6,11
		c0,6.2-5.1,11.1-11.6,11.1H67.4c0-0.1,0-0.2,0-0.2c0-0.3,0-0.7,0-1c0-0.3,0-0.6-0.1-0.9c0,0,0,0,0,0c-0.1-0.6-0.2-1.2-0.3-1.8
		c0,0,0,0,0,0c-0.1-0.6-0.3-1.2-0.5-1.8c0,0,0,0,0,0c-0.2-0.6-0.4-1.2-0.7-1.7c0,0,0,0,0,0c-0.2-0.6-0.5-1.1-0.8-1.6c0,0,0,0,0,0
		c-0.3-0.5-0.6-1-1-1.5c0,0,0,0,0,0c-0.3-0.5-0.7-1-1.1-1.4c0,0,0,0,0,0c-0.4-0.5-0.8-0.9-1.2-1.3c0,0,0,0,0,0
		c-0.4-0.4-0.9-0.8-1.4-1.2c0,0,0,0,0,0c-0.5-0.4-1-0.7-1.5-1.1c0,0,0,0,0,0c-3.1-2-6.9-3.2-10.9-3.2c-6.1,0-11.5,2.7-15.1,6.9
		c0,0,0,0,0,0c-0.4,0.5-0.8,0.9-1.1,1.4c0,0,0,0,0,0c-0.3,0.5-0.7,1-1,1.5c0,0,0,0,0,0c-0.3,0.5-0.6,1.1-0.8,1.6c0,0,0,0,0,0
		c-0.2,0.6-0.5,1.1-0.7,1.7c0,0,0,0,0,0c-0.2,0.6-0.3,1.2-0.5,1.8c0,0,0,0,0,0c-0.1,0.6-0.2,1.2-0.3,1.8c0,0,0,0,0,0
		c-0.1,0.6-0.1,1.3-0.1,1.9c0,0,0,0,0,0c0,0.1,0,0.2,0,0.2H13.3c-6.4,0-11.6-4.9-11.6-11.1c0-5,3.4-9.3,8.2-10.7
		c0.4-0.1,0.7-0.6,0.6-1c-0.1-0.6-0.2-1.3-0.3-2.1c-0.5-3.7,1.9-6.4,5.2-7.7s7.3-0.9,10.2,1.8c0.4,0.4,1,0.4,1.3,0.4
		c0.3,0,0.5-0.1,0.5-0.1c0.5,0.1,0.9-0.3,1-0.7c0-0.1,0-0.2,0-0.4c-1.1-4.4-0.1-6.8,1.7-8.2c1.8-1.4,4.5-1.6,6.7-1.2
		c1,0.2,1.8,0.1,2.4,0.2c0.5,0.1,0.9-0.2,1-0.7c0,0,0,0,0,0C42,958.6,49.4,954.1,55.6,954.1L55.6,954.1z M47.8,992.6
		c2.5,0,4.8,0.5,6.9,1.3h0c0.5,0.2,1,0.5,1.5,0.7h0c0.5,0.3,1,0.5,1.4,0.8h0c0.5,0.3,0.9,0.7,1.3,1c0,0,0,0,0,0
		c0.2,0.2,0.4,0.4,0.6,0.5c0.4,0.4,0.9,0.7,1.3,1.2c2.9,3.1,4.6,7.1,4.6,11.6c0,9.5-8,17.2-17.8,17.2c-9.9,0-17.8-7.7-17.8-17.2
		c0-5.3,2.5-10.1,6.4-13.3c2.7-2.1,5.9-3.5,9.6-3.8C46.6,992.6,47.2,992.6,47.8,992.6L47.8,992.6z M40.2,1001.8
		c-0.5,0-0.9,0.4-0.9,0.9c0,0.3,0.1,0.5,0.3,0.7l7.2,6.9l-7.2,6.9c-0.4,0.3-0.4,0.9,0,1.2c0.3,0.4,0.9,0.4,1.2,0c0,0,0,0,0,0l7.2-7
		l7.2,7c0.4,0.3,0.9,0.3,1.3,0s0.3-0.9,0-1.3c0,0,0,0,0,0l-7.2-6.9l7.2-6.9c0.4-0.3,0.4-0.9,0.1-1.2c-0.2-0.2-0.4-0.3-0.7-0.3
		c-0.2,0-0.4,0.1-0.6,0.2l-7.2,7l-7.2-7C40.6,1001.9,40.4,1001.8,40.2,1001.8L40.2,1001.8z"/>
</g>
</svg>
