<?xml version="1.0" encoding="utf-8"?>
<!-- Generator: Adobe Illustrator 23.1.0, SVG Export Plug-In . SVG Version: 6.00 Build 0)  -->
<svg version="1.1" id="Layer_1" xmlns="http://www.w3.org/2000/svg" xmlns:xlink="http://www.w3.org/1999/xlink" x="0px" y="0px"
	 viewBox="0 0 691.9 386.1" style="enable-background:new 0 0 691.9 386.1;" xml:space="preserve">
<style type="text/css">
	.st0{enable-background:new    ;}
	.st1{fill:#17324D;}
</style>
<g class="st0">
	<path class="st1" d="M25.4,359.2c0,2.5-0.8,4.5-2.5,5.9s-4,2-7.1,2h-2.5l0,9.1h-4l0-24.4h7c3,0,5.3,0.6,6.8,1.9
		C24.7,354.9,25.4,356.7,25.4,359.2z M13.3,363.7h2.1c2,0,3.5-0.4,4.5-1.1s1.4-1.8,1.4-3.3c0-1.4-0.4-2.4-1.3-3.1s-2.2-1-4-1h-2.8
		L13.3,363.7z"/>
	<path class="st1" d="M39,366.4l0,9.7h-4l0-24.4h6.9c3.1,0,5.5,0.6,7,1.8c1.5,1.2,2.3,3,2.3,5.3c0,3-1.6,5.2-4.7,6.5l6.9,10.8h-4.5
		l-5.8-9.7H39z M39,363.1h2.8c1.9,0,3.2-0.3,4-1c0.8-0.7,1.3-1.7,1.3-3.1c0-1.4-0.5-2.4-1.4-3c-0.9-0.6-2.3-0.9-4.1-0.9H39L39,363.1
		z"/>
	<path class="st1" d="M83.2,364c0,4-1,7.1-3,9.3c-2,2.2-4.8,3.3-8.4,3.3c-3.7,0-6.5-1.1-8.5-3.3c-2-2.2-3-5.3-3-9.3c0-4,1-7.1,3-9.3
		c2-2.2,4.8-3.2,8.5-3.2c3.6,0,6.4,1.1,8.4,3.3S83.2,360,83.2,364z M64.5,364c0,3,0.6,5.3,1.8,6.8s3,2.3,5.4,2.3
		c2.4,0,4.2-0.8,5.4-2.3c1.2-1.5,1.8-3.8,1.8-6.9c0-3-0.6-5.3-1.8-6.8c-1.2-1.5-3-2.3-5.3-2.3c-2.4,0-4.2,0.8-5.4,2.3
		C65.1,358.7,64.5,361,64.5,364z"/>
	<path class="st1" d="M97,376.2h-4l0-24.4h13.8v3.4H97l0,7.6h9.2v3.4H97L97,376.2z"/>
	<path class="st1" d="M129.7,376.2l-13.8,0l0-24.4l13.8,0v3.4l-9.8,0l0,6.6l9.2,0v3.3l-9.2,0l0,7.7l9.8,0V376.2z"/>
	<path class="st1" d="M153.8,369.6c0,2.2-0.8,3.9-2.4,5.1c-1.6,1.2-3.7,1.9-6.5,1.9s-5-0.4-6.8-1.3l0-3.8c1.1,0.5,2.3,0.9,3.5,1.2
		c1.3,0.3,2.4,0.5,3.5,0.5c1.6,0,2.7-0.3,3.5-0.9s1.1-1.4,1.1-2.4c0-0.9-0.3-1.7-1-2.3c-0.7-0.6-2.1-1.4-4.3-2.3
		c-2.2-0.9-3.8-1.9-4.7-3.1c-0.9-1.2-1.4-2.5-1.4-4.2c0-2,0.7-3.6,2.2-4.8c1.4-1.2,3.4-1.8,5.8-1.8c2.3,0,4.7,0.5,7,1.5l-1.3,3.3
		c-2.2-0.9-4.1-1.4-5.8-1.4c-1.3,0-2.3,0.3-2.9,0.8c-0.7,0.6-1,1.3-1,2.2c0,0.6,0.1,1.2,0.4,1.6c0.3,0.5,0.7,0.9,1.3,1.3
		c0.6,0.4,1.7,0.9,3.3,1.6c1.8,0.7,3.1,1.4,3.9,2.1c0.8,0.6,1.4,1.4,1.8,2.2C153.6,367.5,153.8,368.5,153.8,369.6z"/>
	<path class="st1" d="M177.2,369.6c0,2.2-0.8,3.9-2.4,5.1c-1.6,1.2-3.7,1.9-6.5,1.9s-5-0.4-6.8-1.3l0-3.8c1.1,0.5,2.3,0.9,3.5,1.2
		c1.3,0.3,2.4,0.5,3.5,0.5c1.6,0,2.7-0.3,3.5-0.9s1.1-1.4,1.1-2.4c0-0.9-0.3-1.7-1-2.3c-0.7-0.6-2.1-1.4-4.3-2.3
		c-2.2-0.9-3.8-1.9-4.7-3.1c-0.9-1.2-1.4-2.5-1.4-4.2c0-2,0.7-3.6,2.2-4.8c1.4-1.2,3.4-1.8,5.8-1.8c2.3,0,4.7,0.5,7,1.5l-1.3,3.3
		c-2.2-0.9-4.1-1.4-5.8-1.4c-1.3,0-2.3,0.3-2.9,0.8c-0.7,0.6-1,1.3-1,2.2c0,0.6,0.1,1.2,0.4,1.6c0.3,0.5,0.7,0.9,1.3,1.3
		c0.6,0.4,1.7,0.9,3.3,1.6c1.8,0.7,3.1,1.4,3.9,2.1c0.8,0.6,1.4,1.4,1.8,2.2C177,367.5,177.2,368.5,177.2,369.6z"/>
	<path class="st1" d="M186.6,376.2l0-24.4l4,0l0,24.4L186.6,376.2z"/>
	<path class="st1" d="M223.4,364c0,4-1,7.1-3,9.3c-2,2.2-4.8,3.3-8.4,3.3c-3.7,0-6.5-1.1-8.5-3.3c-2-2.2-3-5.3-3-9.3
		c0-4,1-7.1,3-9.3c2-2.2,4.8-3.2,8.5-3.2c3.6,0,6.4,1.1,8.4,3.3C222.4,356.9,223.4,360,223.4,364z M204.8,364c0,3,0.6,5.3,1.8,6.8
		s3,2.3,5.4,2.3c2.4,0,4.2-0.8,5.4-2.3c1.2-1.5,1.8-3.8,1.8-6.9c0-3-0.6-5.3-1.8-6.8c-1.2-1.5-3-2.3-5.3-2.3c-2.4,0-4.2,0.8-5.4,2.3
		C205.4,358.7,204.8,361,204.8,364z"/>
	<path class="st1" d="M253.6,376.2l-4.9,0l-12-19.4h-0.1l0.1,1.1c0.2,2.1,0.2,4,0.2,5.7l0,12.7h-3.6l0-24.4h4.8l12,19.3h0.1
		c0-0.3-0.1-1.2-0.1-2.8c-0.1-1.6-0.1-2.9-0.1-3.8l0-12.8l3.7,0L253.6,376.2z"/>
	<path class="st1" d="M279.9,376.2l-2.4-6.8h-9.3l-2.4,6.8h-4.2l9.1-24.5h4.3l9.1,24.5H279.9z M276.4,366l-2.3-6.6
		c-0.2-0.4-0.4-1.1-0.7-2.1c-0.3-1-0.5-1.7-0.6-2.1c-0.3,1.4-0.7,2.9-1.3,4.5l-2.2,6.4H276.4z"/>
	<path class="st1" d="M292,376.2l0-24.4h4l0,21h10.3v3.4H292z"/>
	<path class="st1" d="M348,376.2h-4v-11h-11.2v11h-4l0-24.4h4v10H344v-10h4L348,376.2z"/>
	<path class="st1" d="M380.8,364c0,4-1,7.1-3,9.3s-4.8,3.3-8.4,3.3c-3.7,0-6.5-1.1-8.5-3.3c-2-2.2-3-5.3-3-9.3c0-4,1-7.1,3-9.3
		s4.8-3.2,8.5-3.2c3.6,0,6.4,1.1,8.4,3.3C379.8,356.9,380.8,360,380.8,364z M362.2,364c0,3,0.6,5.3,1.8,6.8c1.2,1.6,3,2.3,5.4,2.3
		c2.4,0,4.2-0.8,5.4-2.3c1.2-1.5,1.8-3.8,1.8-6.9c0-3-0.6-5.3-1.8-6.8c-1.2-1.5-3-2.3-5.3-2.3c-2.4,0-4.2,0.8-5.4,2.3
		S362.2,361,362.2,364z"/>
	<path class="st1" d="M409.8,351.8l0,15.8c0,1.8-0.4,3.4-1.2,4.7c-0.8,1.4-1.9,2.4-3.4,3.1c-1.5,0.7-3.2,1.1-5.2,1.1
		c-3,0-5.4-0.8-7.1-2.4c-1.7-1.6-2.5-3.8-2.5-6.6l0-15.7h4l0,15.4c0,2,0.5,3.5,1.4,4.5c0.9,1,2.4,1.4,4.3,1.4c3.8,0,5.6-2,5.6-5.9
		l0-15.4H409.8z"/>
	<path class="st1" d="M434.8,369.6c0,2.2-0.8,3.9-2.4,5.1c-1.6,1.2-3.7,1.9-6.5,1.9s-5-0.4-6.8-1.3v-3.8c1.1,0.5,2.3,0.9,3.5,1.2
		c1.3,0.3,2.4,0.5,3.5,0.5c1.6,0,2.7-0.3,3.5-0.9s1.1-1.4,1.1-2.4c0-0.9-0.3-1.7-1-2.3c-0.7-0.6-2.1-1.4-4.3-2.3
		c-2.2-0.9-3.8-1.9-4.7-3.1c-0.9-1.2-1.4-2.5-1.4-4.2c0-2,0.7-3.6,2.2-4.8c1.4-1.2,3.4-1.8,5.8-1.8c2.3,0,4.7,0.5,7,1.5l-1.3,3.3
		c-2.2-0.9-4.1-1.4-5.8-1.4c-1.3,0-2.3,0.3-2.9,0.8c-0.7,0.6-1,1.3-1,2.2c0,0.6,0.1,1.2,0.4,1.6c0.3,0.5,0.7,0.9,1.3,1.3
		c0.6,0.4,1.7,0.9,3.3,1.6c1.8,0.7,3.1,1.4,3.9,2.1c0.8,0.6,1.4,1.4,1.8,2.2C434.6,367.5,434.8,368.5,434.8,369.6z"/>
	<path class="st1" d="M458,376.2l-13.8,0l0-24.4l13.8,0v3.4l-9.8,0v6.6l9.2,0l0,3.3l-9.2,0v7.7l9.8,0V376.2z"/>
	<path class="st1" d="M491.9,354.9c-2.3,0-4.1,0.8-5.4,2.4c-1.3,1.6-2,3.9-2,6.7c0,3,0.6,5.3,1.9,6.8c1.3,1.5,3.1,2.3,5.5,2.3
		c1,0,2-0.1,3-0.3c1-0.2,2-0.5,3-0.8v3.4c-1.9,0.7-4.1,1.1-6.5,1.1c-3.6,0-6.3-1.1-8.2-3.2c-1.9-2.2-2.9-5.3-2.9-9.3
		c0-2.5,0.5-4.8,1.4-6.7s2.3-3.4,4-4.4c1.8-1,3.8-1.5,6.2-1.5c2.5,0,4.8,0.5,6.9,1.6l-1.4,3.3c-0.8-0.4-1.7-0.7-2.6-1
		C493.9,355,492.9,354.9,491.9,354.9z"/>
	<path class="st1" d="M507.9,376.2l0-24.4h4l0,21l10.3,0v3.4L507.9,376.2z"/>
	<path class="st1" d="M544.9,376.2h-13.8l0-24.4h13.8v3.4h-9.8v6.6h9.2l0,3.3h-9.2v7.7h9.8V376.2z"/>
	<path class="st1" d="M570,376.2l-2.4-6.8h-9.3l-2.4,6.8h-4.2l9.1-24.5h4.3l9.1,24.5H570z M566.5,366l-2.3-6.6
		c-0.2-0.4-0.4-1.1-0.7-2.1c-0.3-1-0.5-1.7-0.6-2.1c-0.3,1.4-0.7,2.9-1.3,4.5l-2.2,6.4H566.5z"/>
	<path class="st1" d="M602.4,376.2h-4.9l-12-19.4h-0.1l0.1,1.1c0.2,2.1,0.2,4,0.2,5.7l0,12.7h-3.6l0-24.4h4.8l12,19.3h0.1
		c0-0.3-0.1-1.2-0.1-2.8c-0.1-1.6-0.1-2.9-0.1-3.8v-12.8h3.7L602.4,376.2z"/>
	<path class="st1" d="M613.5,376.2l0-24.4h4l0,24.4H613.5z"/>
	<path class="st1" d="M649,376.2h-4.9l-12-19.4H632l0.1,1.1c0.2,2.1,0.2,4,0.2,5.7l0,12.7h-3.6l0-24.4h4.8l12,19.3h0.1
		c0-0.3-0.1-1.2-0.1-2.8c-0.1-1.6-0.1-2.9-0.1-3.8v-12.8h3.7L649,376.2z"/>
	<path class="st1" d="M670.1,362.9l9,0l0,12.2c-1.5,0.5-2.9,0.8-4.2,1c-1.4,0.2-2.8,0.3-4.4,0.3c-3.7,0-6.5-1.1-8.5-3.3
		c-2-2.2-3-5.3-3-9.3c0-3.9,1.1-7,3.4-9.2c2.3-2.2,5.4-3.3,9.3-3.3c2.5,0,5,0.5,7.2,1.5l-1.4,3.3c-2-0.9-4-1.4-5.9-1.4
		c-2.6,0-4.7,0.8-6.2,2.5c-1.5,1.6-2.3,3.9-2.3,6.7c0,3,0.7,5.2,2,6.8c1.4,1.6,3.3,2.3,5.9,2.3c1.3,0,2.7-0.2,4.1-0.5v-6.3h-5.1
		L670.1,362.9z"/>
</g>
<g class="st0">
	<path class="st1" d="M42.8,293.8l12.9,0v0.9h-0.5c-0.5,0-0.9,0.2-1.3,0.5c-0.4,0.3-0.7,0.7-0.9,1.2c-0.2,0.5-0.4,1-0.6,1.5
		c-0.2,0.5-0.2,1-0.2,1.4l0,24.1c-1.1,0.4-2.3,0.8-3.7,1.1c-1.4,0.3-2.8,0.6-4.3,0.8c-1.5,0.2-3,0.4-4.6,0.5c-1.6,0.1-3,0.2-4.3,0.2
		c-5.4,0-10.1-0.9-14.1-2.7c-4-1.8-7.4-4.2-10-7.1c-2.6-2.9-4.6-6.2-5.9-9.9c-1.3-3.7-1.9-7.3-1.9-11.1c0-3.7,0.6-7.4,1.9-11.1
		c1.3-3.7,3.3-6.9,5.9-9.8c2.7-2.9,6-5.2,10.1-7c4-1.8,8.9-2.7,14.4-2.7c2.1,0,4,0.2,5.9,0.5c1.8,0.4,3.4,0.7,4.8,1
		c0.8,0.2,1.5,0.3,2,0.5c0.6,0.2,1.1,0.2,1.5,0.2h0.8l0,9.5h-0.9c-0.4-1.9-1.1-3.4-2.1-4.5c-1.1-1.1-2.3-2-3.6-2.6
		c-1.4-0.6-2.8-1-4.4-1.2c-1.5-0.2-3-0.3-4.3-0.3c-4.5,0-8.4,0.8-11.7,2.4c-3.3,1.6-6,3.6-8.1,6.2c-2.1,2.5-3.7,5.4-4.7,8.5
		c-1,3.1-1.5,6.3-1.5,9.4c0,3.5,0.7,6.9,2,10.3c1.3,3.4,3.2,6.4,5.6,9.1c2.4,2.7,5.3,4.8,8.7,6.5c3.4,1.7,7.2,2.5,11.3,2.5
		c1.1,0,2.5-0.1,4.2-0.4c1.7-0.3,3.4-0.9,5-1.8l0-21.2c0-0.4-0.1-0.9-0.2-1.4c-0.1-0.5-0.3-1-0.6-1.5c-0.3-0.5-0.6-0.9-0.9-1.2
		c-0.4-0.3-0.8-0.5-1.3-0.5h-0.5V293.8z"/>
	<path class="st1" d="M78.4,324.3h0.5v0.9H66.2v-0.9h0.5c0.4,0,0.8-0.2,1.2-0.5c0.4-0.4,0.7-0.8,0.9-1.3c0.3-0.5,0.5-1,0.6-1.6
		c0.1-0.6,0.2-1.1,0.2-1.6l0-48c0-0.4-0.1-0.9-0.2-1.4c-0.1-0.5-0.3-1-0.6-1.5c-0.3-0.5-0.6-0.9-0.9-1.2c-0.4-0.3-0.8-0.5-1.2-0.5
		h-0.5v-0.9h15.7c6,0,10.6,1.2,13.9,3.5c3.3,2.3,4.9,5.8,4.9,10.3c0,2.3-0.4,4.3-1.1,6c-0.8,1.7-1.8,3.2-3,4.4
		c-1.3,1.2-2.7,2.2-4.5,3c-1.7,0.8-3.5,1.3-5.4,1.7l6.5,9.9c1.6,2.4,3.1,4.8,4.8,7.1c1.6,2.3,3.2,4.7,4.8,7.2
		c0.4,0.6,0.9,1.2,1.4,1.9c0.5,0.7,1,1.3,1.6,1.8c0.6,0.5,1.2,1,1.8,1.3c0.6,0.3,1.3,0.5,1.9,0.5v0.9h-3.9c-2.4,0-4.4-0.6-5.9-1.8
		c-1.5-1.2-2.8-2.5-3.8-4.1c-2.7-4-5.4-8-8.1-12.1c-2.7-4.1-5.3-8.1-8-12.1c-0.7-0.1-1.4-0.1-2.1-0.2c-0.8-0.1-1.5-0.2-2.1-0.3
		l0,24.7c0,0.5,0.1,1,0.2,1.6c0.1,0.6,0.3,1.1,0.6,1.6c0.3,0.5,0.6,0.9,0.9,1.3C77.5,324.1,77.9,324.3,78.4,324.3z M75.5,268.8
		l0,22.9H76c0.5,0.1,1.2,0.1,2.3,0.1c1,0,2.4,0,3.9,0c1.3,0,2.6-0.2,4-0.6c1.4-0.4,2.7-1,4-2c1.2-0.9,2.2-2.1,3.1-3.6
		c0.8-1.5,1.2-3.4,1.2-5.7s-0.4-4.1-1.3-5.6c-0.9-1.4-2.1-2.6-3.6-3.4c-1.5-0.8-3.4-1.4-5.5-1.7c-2.2-0.3-4.5-0.5-7.1-0.5H75.5z"/>
	<path class="st1" d="M117.7,324.3l0.5,0c0.5,0,0.9-0.2,1.3-0.5c0.4-0.3,0.7-0.7,0.9-1.2c0.3-0.5,0.5-1,0.6-1.5
		c0.1-0.5,0.2-1,0.2-1.5l0-48.2c0-0.4-0.1-0.9-0.2-1.4c-0.2-0.5-0.4-1-0.6-1.5c-0.3-0.5-0.6-0.9-0.9-1.2c-0.4-0.3-0.8-0.5-1.3-0.5
		l-0.5,0v-0.9l34.7,0l0,8.4h-0.9c-0.1-1.4-0.7-2.6-1.6-3.6c-1-1-2.5-1.6-4.5-1.6h-18.1l0,22.8h14.9c1.4,0,2.5-0.4,3.5-1.3
		c0.9-0.8,1.4-1.8,1.4-3h0.9l0,11.2h-0.9c0-1.1-0.5-2-1.4-2.8c-0.9-0.8-2.1-1.2-3.5-1.2h-14.9l0,27.3H147c1.1,0,2.1-0.3,3-0.8
		c0.8-0.5,1.5-1.2,2.1-1.9c0.6-0.8,1-1.6,1.3-2.4c0.3-0.9,0.4-1.6,0.4-2.2h0.9l0,10.5l-36.9,0V324.3z"/>
	<path class="st1" d="M198.7,324.3h0.4c1.4,0,2.2-0.7,2.2-2c0-0.5-0.1-1-0.3-1.5l-8.1-21.9l-15.8,0l-7.8,21.5
		c-0.2,0.5-0.3,0.9-0.3,1.3c0,0.8,0.2,1.4,0.6,1.8c0.4,0.5,0.9,0.7,1.3,0.7h0.5v0.9h-10v-0.9h0.5c0.8,0,1.5-0.5,2.3-1.4
		c0.7-0.9,1.4-2,1.8-3.3l20.6-54.9l20.2,54.4c0.4,1.2,1,2.4,1.8,3.5c0.7,1.1,1.7,1.7,2.9,1.7h0.5v0.9h-13.3V324.3z M178.1,295.8
		l13.9,0L185,277L178.1,295.8z"/>
	<path class="st1" d="M234.8,324.3h0.5v0.9h-12.8v-0.9h0.4c0.5,0,0.9-0.2,1.3-0.5c0.4-0.4,0.7-0.8,0.9-1.3c0.3-0.5,0.5-1,0.6-1.6
		c0.1-0.6,0.2-1.1,0.2-1.6l0-50.2l-10.4,0c-1,0-1.8,0.2-2.5,0.6c-0.7,0.4-1.3,0.9-1.8,1.6c-0.5,0.6-0.8,1.3-1.1,2.1
		c-0.2,0.8-0.4,1.5-0.4,2.2h-0.9l0-9.8l40.4,0l0,9.8h-0.9c0-0.7-0.1-1.5-0.4-2.2c-0.2-0.8-0.6-1.4-1.1-2.1c-0.5-0.6-1.1-1.2-1.8-1.6
		c-0.7-0.4-1.6-0.6-2.5-0.6h-10.6l0,50.2c0,0.5,0.1,1,0.2,1.6c0.1,0.6,0.3,1.1,0.6,1.6c0.3,0.5,0.6,0.9,0.9,1.3
		C233.9,324.1,234.3,324.3,234.8,324.3z"/>
	<path class="st1" d="M315.1,268.1c-4.4,0-8.3,0.8-11.6,2.4c-3.3,1.6-6,3.7-8.1,6.2c-2.2,2.6-3.8,5.4-4.8,8.6
		c-1.1,3.2-1.6,6.3-1.6,9.5c0,3.5,0.7,7,2.1,10.4c1.4,3.4,3.3,6.4,5.7,9c2.4,2.6,5.3,4.7,8.5,6.3c3.2,1.6,6.8,2.4,10.5,2.4
		c1.1,0,2.4-0.1,3.8-0.4c1.5-0.2,2.9-0.7,4.4-1.4c1.4-0.7,2.8-1.7,4-2.9c1.2-1.3,2.2-2.9,2.8-5h0.9l0,10c-0.9,0-1.8,0.1-2.8,0.4
		c-1,0.2-2.1,0.5-3.3,0.8c-1.6,0.4-3.3,0.8-5.2,1.2c-1.9,0.4-3.9,0.5-6,0.5c-5.2,0-9.8-0.9-13.8-2.7c-4-1.8-7.3-4.1-9.9-7
		s-4.6-6.1-5.9-9.8c-1.3-3.6-2-7.3-2-11c0-3.7,0.6-7.4,2-11.1c1.3-3.7,3.3-6.9,6-9.9c2.7-2.9,6.1-5.3,10.2-7.1
		c4.1-1.8,8.9-2.7,14.4-2.7c2,0,3.8,0.2,5.4,0.5c1.6,0.4,3,0.7,4.3,1.1c0.9,0.3,1.7,0.5,2.5,0.7c0.7,0.2,1.5,0.2,2.2,0.2l0,10h-0.9
		c-0.4-1.9-1-3.4-2-4.6c-1-1.2-2.1-2.2-3.4-2.8c-1.3-0.7-2.7-1.1-4.1-1.4C317.9,268.2,316.5,268.1,315.1,268.1z"/>
	<path class="st1" d="M342.5,324.3h0.5c0.5,0,0.9-0.2,1.3-0.5c0.4-0.3,0.7-0.7,0.9-1.2c0.3-0.5,0.5-1,0.6-1.5c0.1-0.5,0.2-1,0.2-1.5
		l0-48.2c0-0.4-0.1-0.9-0.2-1.4c-0.2-0.5-0.4-1-0.6-1.5c-0.3-0.5-0.6-0.9-0.9-1.2c-0.4-0.3-0.8-0.5-1.3-0.5h-0.5v-0.9l13,0v0.9H355
		c-0.5,0-0.9,0.2-1.3,0.5c-0.4,0.3-0.7,0.7-0.9,1.2c-0.2,0.5-0.4,1-0.6,1.5c-0.2,0.5-0.2,1-0.2,1.4l0,50.5h19.7c1.1,0,2.1-0.3,3-0.8
		c0.8-0.5,1.5-1.2,2.1-2c0.6-0.8,1-1.7,1.3-2.6c0.3-0.9,0.4-1.8,0.4-2.6h0.9v11.3l-36.9,0V324.3z"/>
	<path class="st1" d="M387.4,324.3h0.5c0.5,0,0.9-0.2,1.3-0.5c0.4-0.3,0.7-0.7,0.9-1.2c0.3-0.5,0.5-1,0.6-1.5c0.1-0.5,0.2-1,0.2-1.5
		l0-48.2c0-0.4-0.1-0.9-0.2-1.4c-0.2-0.5-0.4-1-0.6-1.5c-0.3-0.5-0.6-0.9-0.9-1.2c-0.4-0.3-0.8-0.5-1.3-0.5h-0.5v-0.9l34.7,0v8.4
		h-0.9c-0.1-1.4-0.7-2.6-1.6-3.6c-1-1-2.5-1.6-4.5-1.6l-18.1,0l0,22.8l14.9,0c1.4,0,2.5-0.4,3.5-1.3c0.9-0.8,1.4-1.8,1.4-3h0.9
		l0,11.2h-0.9c0-1.1-0.5-2-1.3-2.8c-0.9-0.8-2.1-1.2-3.5-1.2l-14.9,0l0,27.3l19.7,0c1.1,0,2.1-0.3,3-0.8c0.8-0.5,1.5-1.2,2.1-1.9
		s1-1.6,1.3-2.4c0.3-0.9,0.4-1.6,0.4-2.2h0.9l0,10.5l-36.9,0V324.3z"/>
	<path class="st1" d="M468.4,324.3h0.4c1.4,0,2.2-0.7,2.2-2c0-0.5-0.1-1-0.3-1.5l-8.1-21.9h-15.8l-7.8,21.5
		c-0.2,0.5-0.3,0.9-0.3,1.3c0,0.8,0.2,1.4,0.6,1.8c0.4,0.5,0.9,0.7,1.3,0.7h0.5v0.9h-10v-0.9h0.5c0.8,0,1.5-0.5,2.3-1.4
		c0.8-0.9,1.4-2,1.8-3.3l20.6-54.9l20.2,54.4c0.4,1.2,1,2.4,1.8,3.5c0.8,1.1,1.7,1.7,2.9,1.7h0.5v0.9l-13.3,0V324.3z M447.7,295.8
		h13.9l-6.9-18.8L447.7,295.8z"/>
	<path class="st1" d="M499.5,324.3h0.5v0.9h-10v-0.9h0.5c0.4,0,0.8-0.2,1.2-0.5c0.4-0.4,0.7-0.8,0.9-1.3c0.2-0.5,0.4-1,0.6-1.6
		c0.1-0.6,0.2-1.1,0.2-1.6l0-48c0-0.4,0-0.9-0.1-1.4s-0.3-1-0.5-1.5c-0.2-0.5-0.6-0.9-1-1.2c-0.4-0.3-0.9-0.5-1.5-0.5h-0.5v-0.9h9.1
		l32.7,51.5l0-45.9c0-0.4-0.1-0.9-0.2-1.4c-0.2-0.5-0.4-1-0.6-1.5c-0.3-0.5-0.6-0.9-0.9-1.2c-0.4-0.3-0.8-0.5-1.3-0.5H528v-0.9h10.1
		v0.9h-0.5c-0.5,0-0.9,0.2-1.3,0.5c-0.4,0.3-0.7,0.7-0.9,1.2c-0.3,0.5-0.5,1-0.6,1.5c-0.1,0.5-0.2,1-0.2,1.4l0,53.8h-5.6l-32.6-51.7
		l0,45.8c0,0.5,0.1,1,0.2,1.6c0.1,0.6,0.3,1.1,0.6,1.6c0.3,0.5,0.6,0.9,0.9,1.3C498.6,324.1,499,324.3,499.5,324.3z"/>
	<path class="st1" d="M549.9,265.8h12.8v0.9h-0.5c-0.4,0-0.8,0.2-1.2,0.5c-0.4,0.3-0.7,0.7-0.9,1.2c-0.2,0.5-0.4,1-0.6,1.5
		c-0.2,0.6-0.2,1.1-0.2,1.5l0,48c0,0.5,0.1,1,0.2,1.6c0.1,0.6,0.3,1.1,0.6,1.6c0.3,0.5,0.6,0.9,0.9,1.3c0.3,0.4,0.7,0.5,1.2,0.5h0.5
		v0.9h-12.8v-0.9h0.5c0.5,0,0.9-0.2,1.3-0.5c0.4-0.3,0.7-0.8,0.9-1.3c0.3-0.5,0.5-1,0.6-1.6c0.1-0.6,0.2-1.1,0.2-1.6l0-48
		c0-0.4-0.1-0.9-0.2-1.4c-0.1-0.5-0.3-1-0.6-1.5c-0.3-0.5-0.6-0.9-0.9-1.2c-0.4-0.3-0.8-0.5-1.3-0.5h-0.5V265.8z"/>
	<path class="st1" d="M583.8,324.3h0.5v0.9h-10v-0.9h0.5c0.4,0,0.8-0.2,1.2-0.5c0.4-0.4,0.7-0.8,0.9-1.3c0.2-0.5,0.4-1,0.6-1.6
		c0.1-0.6,0.2-1.1,0.2-1.6l0-48c0-0.4,0-0.9-0.1-1.4s-0.3-1-0.5-1.5c-0.2-0.5-0.6-0.9-1-1.2c-0.4-0.3-0.9-0.5-1.5-0.5h-0.5v-0.9h9.1
		l32.7,51.5l0-45.9c0-0.4-0.1-0.9-0.2-1.4c-0.2-0.5-0.4-1-0.6-1.5c-0.3-0.5-0.6-0.9-0.9-1.2c-0.4-0.3-0.8-0.5-1.3-0.5h-0.5v-0.9
		h10.1v0.9H622c-0.5,0-0.9,0.2-1.3,0.5c-0.4,0.3-0.7,0.7-0.9,1.2c-0.3,0.5-0.5,1-0.6,1.5c-0.1,0.5-0.2,1-0.2,1.4l0,53.8h-5.6
		l-32.6-51.7l0,45.8c0,0.5,0.1,1,0.2,1.6c0.1,0.6,0.3,1.1,0.6,1.6c0.3,0.5,0.6,0.9,0.9,1.3C582.9,324.1,583.3,324.3,583.8,324.3z"/>
	<path class="st1" d="M672.6,293.8h12.9v0.9H685c-0.5,0-0.9,0.2-1.3,0.5c-0.4,0.3-0.7,0.7-0.9,1.2c-0.2,0.5-0.4,1-0.6,1.5
		c-0.2,0.5-0.2,1-0.2,1.4l0,24.1c-1.1,0.4-2.3,0.8-3.7,1.1c-1.4,0.3-2.8,0.6-4.3,0.8c-1.5,0.2-3,0.4-4.6,0.5c-1.6,0.1-3,0.2-4.3,0.2
		c-5.4,0-10.1-0.9-14.1-2.7c-4-1.8-7.4-4.2-10-7.1c-2.6-2.9-4.6-6.2-5.9-9.9c-1.3-3.7-1.9-7.3-1.9-11.1c0-3.7,0.6-7.4,1.9-11.1
		c1.3-3.7,3.3-6.9,5.9-9.8c2.7-2.9,6-5.2,10.1-7c4-1.8,8.9-2.7,14.4-2.7c2.1,0,4,0.2,5.9,0.5c1.8,0.4,3.4,0.7,4.8,1
		c0.8,0.2,1.5,0.3,2,0.5c0.6,0.2,1.1,0.2,1.5,0.2h0.8v9.5h-0.9c-0.4-1.9-1.1-3.4-2.1-4.5c-1.1-1.1-2.3-2-3.6-2.6
		c-1.4-0.6-2.8-1-4.4-1.2c-1.5-0.2-3-0.3-4.3-0.3c-4.5,0-8.4,0.8-11.7,2.4c-3.3,1.6-6,3.6-8.1,6.2c-2.1,2.5-3.7,5.4-4.7,8.5
		c-1,3.1-1.5,6.3-1.5,9.4c0,3.5,0.7,6.9,2,10.3c1.3,3.4,3.2,6.4,5.6,9.1c2.4,2.7,5.3,4.8,8.7,6.5c3.4,1.7,7.2,2.5,11.3,2.5
		c1.1,0,2.5-0.1,4.2-0.4c1.7-0.3,3.4-0.9,5-1.8l0-21.2c0-0.4-0.1-0.9-0.2-1.4c-0.1-0.5-0.3-1-0.6-1.5c-0.3-0.5-0.6-0.9-0.9-1.2
		c-0.4-0.3-0.8-0.5-1.3-0.5h-0.5V293.8z"/>
</g>
<g>
	<g>
		<polygon class="st1" points="185.5,141.2 185.5,176.4 145.5,177.3 145.2,146.3 		"/>
		<polygon class="st1" points="233.6,175.4 194.1,176.3 193.1,176.3 193.1,140.2 233.4,135.1 		"/>
		<polygon class="st1" points="185.5,183.2 185.6,217.9 145.8,213.3 145.5,183.3 145.8,183.3 		"/>
		<polygon class="st1" points="233.8,223.3 193.1,218.7 193.1,183.1 194.1,183.1 233.6,182.9 		"/>
	</g>
	<g>
		<polygon class="st1" points="534.6,179.7 534.5,208.6 501.7,212.9 501.7,180.1 		"/>
		<polygon class="st1" points="534.6,147 534.6,174.9 501.7,174.5 501.7,142.6 		"/>
		<polyline class="st1" points="539.2,179.6 539.2,207.9 572,203.6 572,179.2 		"/>
		<polyline class="st1" points="572,175.4 572,152 539.2,147.6 539.2,175 		"/>
	</g>
	<polygon class="st1" points="57.1,182.9 188.8,2.8 228.7,38.4 542,0 634.9,182 539.2,54.4 419.2,205.4 343.2,205.4 190.3,52.5 	"/>
</g>
</svg>
